<?xml version="1.0" encoding="utf-8"?>
<!-- Generator: Adobe Illustrator 17.1.0, SVG Export Plug-In . SVG Version: 6.00 Build 0)  -->
<!DOCTYPE svg PUBLIC "-//W3C//DTD SVG 1.1//EN" "http://www.w3.org/Graphics/SVG/1.1/DTD/svg11.dtd">
<svg version="1.1" xmlns="http://www.w3.org/2000/svg" xmlns:xlink="http://www.w3.org/1999/xlink" x="0px" y="0px"
	 viewBox="0 0 1500 150" enable-background="new 0 0 1500 150" width="1500" height="150" xml:space="preserve">
<g id="File.png_1_">
	<g id="Rounded_Rectangle_2">
		<g>
			<path fill-rule="evenodd" clip-rule="evenodd" fill="#FFAB40" d="M120,0H30C13.4,0,0,13.4,0,30v90c0,16.6,13.4,30,30,30h90
				c16.6,0,30-13.4,30-30V30C150,13.4,136.6,0,120,0z"/>
		</g>
	</g>
	<g id="文件夹">
		<g>
			<path fill-rule="evenodd" clip-rule="evenodd" fill="#FFFFFF" d="M36,108.2c0,3.2,2.6,5.8,5.8,5.8h68.4c3.2,0,5.8-2.6,5.8-5.8V68
				H36V108.2z M110,52H90l-5.3-8.2c-1.8-3.9-4.9-5.8-8.1-5.8H41.8c-3.2,0-5.8,2.6-5.8,5.8V64h80v-6.3C116,54.5,113.2,52,110,52z"/>
		</g>
	</g>
</g>
<g id="Movie.png_1_">
	<g id="Rounded_Rectangle_2_copy">
		<g>
			<path fill-rule="evenodd" clip-rule="evenodd" fill="#369CED" d="M270,0h-90c-16.6,0-30,13.4-30,30v90c0,16.6,13.4,30,30,30h90
				c16.6,0,30-13.4,30-30V30C300,13.4,286.6,0,270,0z"/>
		</g>
	</g>
	<g id="圆角矩形_39">
		<g>
			<path fill-rule="evenodd" clip-rule="evenodd" fill="#FFFFFF" d="M263.6,55.1l-6.5-11.4c-0.9-1.6-2.9-2.1-4.5-1.2
				c-1.6,0.9,0.4,2.1,1.3,3.7l4.1,12.2c0,0,0,0.1,0.1,0.1V74h0c2.2,0,4.1,1.2,5.2,3c0.5-0.5,0.8-1.2,0.8-2V57.1
				C264.1,56.4,264,55.7,263.6,55.1z M188,75c0,0.8,0.3,1.4,0.8,2c1-1.8,2.9-3,5.1-3h0.2V58.4c0,0,0,0,0.1-0.1l4.1-12.2
				c0.9-1.6,2.8-2.8,1.3-3.7c-1.6-0.9-3.6-0.4-4.5,1.2l-6.5,11.4c-0.4,0.7-0.5,1.4-0.4,2.1V75z M260,76h-68c-2.2,0-4,1.8-4,4v10
				c0,2.2,1.8,4,4,4v12c0,2.2,1.8,4,4,4h24c2.2,0,4-1.8,4-4V94h0.2c0.4-1.2,1.5-2,2.8-2h0.1c1.3,0,2.4,0.8,2.8,2h0.2v12
				c0,2.2,1.8,4,4,4h24c2.2,0,4-1.8,4-4V93.4c1.2-0.7,2-2,2-3.4V80C264,77.8,262.2,76,260,76z M220,102c0,2.2-1.8,4-4,4h-16
				c-2.2,0-4-1.8-4-4V90c0-2.2,1.8-4,4-4h16c2.2,0,4,1.8,4,4V102z M258,102c0,2.2-1.8,4-4,4h-16c-2.2,0-4-1.8-4-4V90
				c0-2.2,1.8-4,4-4h16c2.2,0,4,1.8,4,4V102z M250,90h-8c-2.2,0-4,1.8-4,4v4c0,2.2,1.8,4,4,4h8c2.2,0,4-1.8,4-4v-4
				C254,91.8,252.2,90,250,90z"/>
		</g>
	</g>
</g>
<g id="Music.png_1_">
	<g id="Rounded_Rectangle_2_copy_6">
		<g>
			<path fill-rule="evenodd" clip-rule="evenodd" fill="#FD5353" d="M420,0h-90c-16.6,0-30,13.4-30,30v90c0,16.6,13.4,30,30,30h90
				c16.6,0,30-13.4,30-30V30C450,13.4,436.6,0,420,0z"/>
		</g>
	</g>
	<g id="圆角矩形_38">
		<g>
			<path fill-rule="evenodd" clip-rule="evenodd" fill="#FFFFFF" d="M336,89v12c0,2.8,1.6,5.2,4,6.3V82.7
				C337.6,83.8,336,86.2,336,89z M412,82.7v24.6c2.4-1.1,4-3.5,4-6.3V89C416,86.2,414.4,83.8,412,82.7z M408,77.2v-8.7
				c0-16.9-14.3-30.5-32-30.5c-17.7,0-32,13.7-32,30.5v8.7c0,0.5,0,0.9,0,1.4c-0.8,0.4-1.5,0.9-2.1,1.5v29.8c1.3,1.3,3,2.1,5,2.1
				c3.9,0,7-3.1,7-7V85c0-2.8-1.6-5.2-4-6.3v-8.9c0-14.2,11.5-25.8,25.8-25.8h0.5c14.2,0,25.8,11.5,25.8,25.8v8.9
				c-2.4,1.1-4,3.5-4,6.3v20c0,3.9,3.1,7,7,7c2,0,3.7-0.8,5-2.1V80.1c-0.6-0.6-1.3-1.1-2.1-1.5C408,78.2,408,77.7,408,77.2z"/>
		</g>
	</g>
</g>
<g id="Gift.png_1_">
	<g id="Rounded_Rectangle_2_copy_5">
		<g>
			<path fill-rule="evenodd" clip-rule="evenodd" fill="#F86706" d="M570,0h-90c-16.6,0-30,13.4-30,30v90c0,16.6,13.4,30,30,30h90
				c16.6,0,30-13.4,30-30V30C600,13.4,586.6,0,570,0z"/>
		</g>
	</g>
	<g id="礼包">
		<g>
			<path fill-rule="evenodd" clip-rule="evenodd" fill="#FFFFFF" d="M549.1,41.8c-8.5-12.4-15.2-2-18.6,6.2h21.4
				C551.7,46.3,550.8,44.2,549.1,41.8z M502.9,41.8c-1.7,2.5-2.6,4.5-2.8,6.2h21.3C518,39.8,511.4,29.3,502.9,41.8z M559.3,52H554v0
				h-26v16h30v0h1.4c3.7,0,6.6-3.1,6.6-6.8V59C566,55.2,563,52,559.3,52z M528,116h23.4c3.7,0,6.6-3,6.6-6.8V72h-30V116z M498,52
				h-5.4c-3.7,0-6.7,3.2-6.7,6.9v2.2c0,3.8,2.9,6.8,6.6,6.8h1.4v41.2c0,3.7,3,6.8,6.6,6.8H524V72h-30v-4h30V52L498,52L498,52z"/>
		</g>
	</g>
</g>
<g id="Note_1_">
	<g id="Rounded_Rectangle_2_copy_3">
		<g>
			<path fill-rule="evenodd" clip-rule="evenodd" fill="#A1887F" d="M1020,0h-90c-16.6,0-30,13.4-30,30v90c0,16.6,13.4,30,30,30h90
				c16.6,0,30-13.4,30-30V30C1050,13.4,1036.6,0,1020,0z"/>
		</g>
	</g>
	<g id="矩形_27">
		<g>
			<path fill-rule="evenodd" clip-rule="evenodd" fill="#FFFFFF" d="M1008,103.9c0,2.3-2,4.1-4.4,4.1h-57.2c-2.4,0-4.4-1.8-4.4-4.1
				V48.1c0-2.3,2-4.1,4.4-4.1h34.2l3.9-4h-41.2c-2.9,0-5.3,2.3-5.3,5.1v61.7c0,2.8,2.4,5.1,5.3,5.1h63.4c2.9,0,5.3-2.3,5.3-5.1V53.7
				l-4,4.1V103.9z M1012,40l-8-8c-0.7-0.7-1.3-0.7-2,0l-36,38l-4,14l14-4l36-38C1012.7,41.3,1012.7,40.7,1012,40z M1002,94h-52v4h52
				V94z"/>
		</g>
	</g>
</g>
<g id="Photos_1_">
	<g id="Rounded_Rectangle_2_copy_4">
		<g>
			<path fill-rule="evenodd" clip-rule="evenodd" fill="#86C06A" d="M1170,0h-90c-16.6,0-30,13.4-30,30v90c0,16.6,13.4,30,30,30h90
				c16.6,0,30-13.4,30-30V30C1200,13.4,1186.6,0,1170,0z"/>
		</g>
	</g>
	<g id="相册">
		<g>
			<path fill-rule="evenodd" clip-rule="evenodd" fill="#FFFFFF" d="M1159.3,44h-66.7c-3.7,0-6.7,3-6.7,6.7v58.7
				c0,3.7,3,6.7,6.7,6.7h66.7c3.7,0,6.7-3,6.7-6.7V50.7C1166,47,1163,44,1159.3,44z M1106,54c4.4,0,8,3.6,8,8c0,4.4-3.6,8-8,8
				c-4.4,0-8-3.6-8-8C1098,57.6,1101.6,54,1106,54z M1153.1,72.3l-21.3,23c-0.4,0.4-0.8,0.5-1.3,0.5c-0.5,0-0.9-0.2-1.3-0.5
				l-10.2-6.4l-16.8,16.5c-0.7,0.7-2.9,0.7-3.6,0c-1.1-1-0.7-2.9,0-3.6l18.7-18.7c0.4-0.4,0.9-0.5,1.3-0.5c0.5,0,1,0.1,1.3,0.5
				l10.2,6.4l19.2-20.8c0.7-0.7,2.3-1.4,3.6,0C1154.7,70.4,1153.8,71.7,1153.1,72.3z M1093.8,40h62.4c1,0,1.8-0.8,1.8-1.8v-0.4
				c0-1-0.8-1.8-1.8-1.8h-62.4c-1,0-1.8,0.8-1.8,1.8v0.4C1092,39.2,1092.8,40,1093.8,40z"/>
		</g>
	</g>
</g>
<g id="朋友圈_1_">
	<g id="椭圆_2_xA0_图像_1_">
	</g>
	<g id="Offline_1_">
		<g id="Rounded_Rectangle_2_copy_5_2_">
			<g>
				<path fill-rule="evenodd" clip-rule="evenodd" fill="#00B293" d="M870,0h-90c-16.6,0-30,13.4-30,30v90c0,16.6,13.4,30,30,30h90
					c16.6,0,30-13.4,30-30V30C900,13.4,886.6,0,870,0z"/>
			</g>
		</g>
		<g id="椭圆_1">
			<g>
				<path fill-rule="evenodd" clip-rule="evenodd" fill="#FFFFFF" d="M853.8,67.6C852.2,54.3,841.2,44,828,44
					c-12.8,0-23.5,9.7-25.6,22.3C793.1,68,786,76.2,786,86c0,6.5,3.1,12.3,8,16c1.8,2.4,4.7,4,8,4h46c1.7,0,3.3-0.4,4.7-1.2
					c7.7-2.8,13.3-10.1,13.3-18.8C866,77.7,861,70.6,853.8,67.6z M837.4,83.2l-9.6,9.6c-0.1,0.2-0.2,0.4-0.4,0.6
					c-0.3,0.3-0.6,0.4-0.9,0.5c-0.2,0-0.3,0.1-0.5,0.1c-0.1,0-0.2,0-0.3,0c-0.4,0-0.8-0.2-1.1-0.5c-0.2-0.2-0.3-0.4-0.4-0.6
					l-9.5-9.5c-0.7-0.7-0.7-2,0-2.7c0.7-0.7,2-0.7,2.7,0l6.7,6.7V64c0-1.1,0.9-2,2-2c1.1,0,2,0.9,2,2v23.2l6.7-6.7
					c0.7-0.7,2-0.7,2.7,0C838.2,81.3,838.2,82.5,837.4,83.2z"/>
			</g>
		</g>
		<g id="朋友圈_2_">
			<g id="Rounded_Rectangle_2_copy_5_1_">
				<g>
					<path fill="#4CB5FF" d="M1470,0h-90c-16.6,0-30,13.4-30,30v90c0,16.6,13.4,30,30,30h90c16.6,0,30-13.4,30-30V30
						C1500,13.4,1486.6,0,1470,0z"/>
				</g>
			</g>
			<g id="椭圆_2_xA0_图像_2_">
				<g id="椭圆_2">
					<g>
						<path fill="#FFFFFF" d="M1428.6,93L1428.6,93c-0.2-0.2-0.4-0.4-0.6-0.8c-4.6-4.8-12.4-5-17.2-0.2c-4.8,4.6-5,12.4-0.4,17.2
							c2,2.2,4.8,3.2,7.4,3.6c10,1.6,20.6-0.6,29.2-6.8c-5.8-2-11.2-5.2-15.8-9.8C1430.4,95,1429.4,94,1428.6,93z"/>
					</g>
				</g>
				<g id="椭圆_2_1_">
					<g>
						<path fill="#FFFFFF" d="M1403.4,67.2c-6-3.2-13.4-1-16.4,5c-1.6,2.8-1.8,6-1,9c1.6,9.6,7,18.6,15.4,24.8c0-6,1.4-12.2,4.6-18
							c0.6-1.2,1.4-2.4,2-3.4l0,0c0.2-0.2,0.4-0.6,0.6-0.8C1411.6,77.8,1409.4,70.4,1403.4,67.2z"/>
					</g>
				</g>
				<g id="椭圆_2_2_">
					<g>
						<path fill="#FFFFFF" d="M1414.8,38.6c-3.2-0.6-6.4,0.2-8.8,1.8c-8.8,4.6-15.8,12.4-19,22.2c5.8-1.8,12.2-2.4,18.6-1.2
							c1.4,0.2,2.6,0.6,4,0.8l0,0c0.4,0,0.6,0.2,1,0.2c6.6,1.2,13-3.2,14.2-9.8C1426,46,1421.6,39.8,1414.8,38.6z"/>
					</g>
				</g>
				<g id="椭圆_2_3_">
					<g>
						<path fill="#FFFFFF" d="M1451.2,46.8c-7-6.8-16.8-11-27-11c3.6,5,6,10.8,7,17.2c0.2,1.4,0.4,2.6,0.4,4l0,0c0,0.4,0,0.6,0,1
							c1,6.6,7.2,11.2,13.8,10.4s11.4-7,10.4-13.6C1455.2,51.4,1453.6,48.8,1451.2,46.8z"/>
					</g>
				</g>
				<g id="椭圆_2_4_">
					<g>
						<path fill="#FFFFFF" d="M1447,74.4c-1.2,0.6-2.4,1.2-3.8,1.6l0,0c-0.4,0.2-0.6,0.2-1,0.4c-6,3-8.6,10.2-5.6,16.2
							c3,6,10.2,8.6,16.2,5.6c3-1.4,5-3.8,6-6.6c4.4-8.8,5.4-19.2,2.2-29C1457.6,67.6,1452.8,71.6,1447,74.4z"/>
					</g>
				</g>
			</g>
		</g>
	</g>
	<g id="Inbox_1_">
		<g id="Rounded_Rectangle_2_copy_5_3_">
			<g>
				<path fill-rule="evenodd" clip-rule="evenodd" fill="#1FBBD3" d="M720,0h-90c-16.6,0-30,13.4-30,30v90c0,16.6,13.4,30,30,30h90
					c16.6,0,30-13.4,30-30V30C750,13.4,736.6,0,720,0z"/>
			</g>
		</g>
		<g id="圆角矩形_89_拷贝">
			<g>
				<path fill-rule="evenodd" clip-rule="evenodd" fill="#FFFFFF" d="M645.7,62.7L645.7,62.7C645.5,62.6,645.6,62.7,645.7,62.7z
					 M645.7,62.6L645.7,62.6C645.7,62.6,645.7,62.6,645.7,62.6C645.7,62.6,645.7,62.6,645.7,62.6z M663.1,71.1c-1,1-1.4,2.2-0.9,2.6
					l12.1,16.1c0.3,0.3,0.8,0.3,1.3,0c0.1,0.1,0.2,0.2,0.4,0.2s0.2-0.1,0.4-0.2c0.5,0.2,1,0.3,1.3,0l12.1-16.1
					c0.5-0.5,0.1-1.7-0.9-2.6c-1-1-2.1-1.4-2.6-0.9l-8.3,8.4V38.5c0-1.4-0.9-2.5-2-2.5c-1.1,0-2,1.1-2,2.5v40.2l-8.3-8.4
					C665.2,69.7,664,70.1,663.1,71.1z M706.3,62.6C706.3,62.6,706.3,62.6,706.3,62.6C706.3,62.6,706.3,62.6,706.3,62.6L706.3,62.6z
					 M715.8,79.4l-0.1-0.2c0.2-0.3,0.3-0.6,0.3-1v-0.3c0-1-0.8-1.9-1.9-1.9h-0.2l-7.6-13.3c-0.3,0-0.8,0,0-0.1c-0.1,0-0.1,0-0.2,0
					c-0.5-1.4-1.7-2.4-3.2-2.5c0,0,0,0,0,0h-13.6c-0.1,0-0.2,0-0.2,0s-0.2,0-0.2,0h-0.9c0,0.1,0,0.1,0,0.2c-1.1,0.5-1.9,1.5-1.9,2.8
					c0,1.1,0.6,2,1.4,2.6c0,0.1-0.1,0.3-0.1,0.4h1.7c0,0,0,0,0,0s0,0,0,0h9c0.6,0.1,1.6-0.3,2,0c1.4,0.8,1.2,0.8,1.6,1.6
					c0.3,0.4,0.6,0.8,0.8,1.3c0,0,0,0,0,0l3.9,7.1h-4.5c0,0.1,0,0.1,0.1,0.2c-1.1,0.4-1.9,1.5-1.9,2.8c0,0.3,0,0.5,0.1,0.8
					c0,0-0.1,0-0.1,0.1v17.7c0,1.4-1.3,2.4-2.9,2.4H657c-1.6,0-2.9-1.1-2.9-2.4V79.8c0,0-0.1,0-0.2,0c0.1-0.3,0.1-0.6,0.1-0.9
					c0-1.7-1.3-3-3-3c-0.3,0-0.6,0.1-0.9,0.1c0,0,0-0.1,0-0.1h-4.5l3.9-7.1c0,0,0,0,0,0c0.2-0.5,0.5-0.9,0.8-1.3
					c0.4-0.8,0.1-0.9,1.6-1.6c0.4-0.3,1.4,0.1,2,0h8.7c0,0,0,0,0,0c0.1,0,0.2,0,0.3,0c1.7,0,3-1.3,3-3s-1.3-3-3-3
					c-0.3,0-0.6,0.1-0.8,0.1c0,0,0-0.1,0-0.1h-13c0,0,0,0,0,0c-1.5,0.1-2.7,1.1-3.2,2.5c-0.1,0-0.2,0-0.2,0c0.8,0.1,0.2,0.1,0,0.1
					L638.1,76h-0.2c-1,0-1.9,0.8-1.9,1.9v0.3c0,0.4,0.1,0.7,0.3,1l-0.1,0.2c-0.2,0.4-0.3,0.9-0.2,1.4v21.5c0,3.5,2.1,5.7,5.7,5.7
					h68.7c3.5,0,5.7-2.1,5.7-5.7V80.7C716.1,80.3,716.1,79.8,715.8,79.4z M698,66C698,66,697.9,66.8,698,66L698,66z M706.3,62.6
					L706.3,62.6C706.4,62.7,706.5,62.6,706.3,62.6z"/>
			</g>
		</g>
	</g>
	<g id="Contacts_1_">
		<g id="Rounded_Rectangle_2_copy_5_4_">
			<g>
				<path fill-rule="evenodd" clip-rule="evenodd" fill="#4FC3F7" d="M1320,0h-90c-16.6,0-30,13.4-30,30v90c0,16.6,13.4,30,30,30h90
					c16.6,0,30-13.4,30-30V30C1350,13.4,1336.6,0,1320,0z"/>
			</g>
		</g>
		<g id="椭圆_21">
			<g>
				<path fill-rule="evenodd" clip-rule="evenodd" fill="#FFFFFF" d="M1305.1,44h-53.5c0,0,0,0,0,0h-5.6c0,0,0,0-0.1,0
					c-1.1,0-2-0.9-2-2c0-1.1,0.9-2,2-2c0,0,0.1,0,0.1,0h5.5c0,0,0,0,0,0h58.4v0c0,0,0,0,0,0c1.1,0,2-0.9,2-2s-0.9-2-2-2c0,0,0,0,0,0
					v0h-64c0,0,0,0,0,0c-3.3,0-6,2.7-6,6c0,0,0,0,0,0v67.1c0,3.8,3.1,6.9,6.9,6.9h58.3c3.8,0,6.9-3.1,6.9-6.9V50.9
					C1312,47.1,1308.9,44,1305.1,44z M1294.6,104h-38.3c-5.8,0-4.1-7.3-4.1-7.3c2.9-8.5,13.4-10.9,14.5-11.5c1-0.5,1.1-1.8,1-3.1
					c0-1.3-2.1-4.2-2.1-4.2c-2,0.4-3.1-7.1-2.1-7.3c1.3-0.2,1-1,1-1c-0.4-4.9,0-9.4,0-9.4c7.3-7.6,8.8-4.3,9.3-5.2
					c0.5-0.9,2.1-1,2.1-1c3.3-0.3,3.1,1,3.1,1c1.8,0.1,2.1,1,2.1,1c2.4,0.1,5.2,3.1,5.2,3.1c1.8,2.2,1,10.4,1,10.4c-0.2,1.1,1,1,1,1
					c2.6,1.4-1,7.3-1,7.3c-2.4,1.9-3.1,4.2-3.1,4.2c-0.3,3,1,3.1,1,3.1c11.9,3.4,14.5,10.4,14.5,10.4
					C1301.1,104.9,1294.6,104,1294.6,104z"/>
			</g>
		</g>
	</g>
</g>
</svg>
